<!-- Generated by IcoMoon.io -->
<svg version="1.1" xmlns="http://www.w3.org/2000/svg" width="32" height="32" viewBox="0 0 32 32">
<path d="M31.697 27.023l-10.311 4.925c-0.071 0.034-0.15 0.052-0.23 0.052h-6.755c-0.295 0-0.533-0.239-0.533-0.533v-1.067c0-0.294 0.238-0.533 0.533-0.533h3.2c0.295 0 0.533 0.239 0.533 0.533v0.533h2.901l6.699-3.2h-0.535c-1.47 0-2.666-1.197-2.666-2.668v-6.399c0-1.47 1.196-2.667 2.666-2.667h2.134c0.603 0 1.153 0.209 1.6 0.547v-0.547c0-0.689-0.048-1.383-0.142-2.065-0.041-0.292 0.163-0.561 0.455-0.602 0.298-0.039 0.561 0.164 0.602 0.455 0.101 0.73 0.153 1.474 0.153 2.212v10.542c0 0.205-0.118 0.393-0.303 0.482zM30.933 19.094v-0.427c0-0.882-0.718-1.599-1.6-1.599h-2.134c-0.882 0-1.599 0.717-1.599 1.599v6.399c0 0.883 0.717 1.602 1.599 1.602h2.134c0.882 0 1.6-0.719 1.6-1.602v-5.972zM31.467 11.2c-0.295 0-0.533-0.239-0.533-0.533v-1.6h-3.733c-0.201 0-0.385-0.113-0.475-0.291s-0.074-0.394 0.044-0.556l4.267-5.867c0.136-0.187 0.376-0.263 0.597-0.194 0.219 0.071 0.368 0.276 0.368 0.508v7.999c0 0.294-0.238 0.533-0.533 0.533zM30.933 4.307l-2.686 3.693h2.686v-3.693zM25.6 10.667c0 0.294-0.238 0.533-0.533 0.533h-4.8c-0.218 0-0.413-0.132-0.495-0.334s-0.031-0.433 0.125-0.583l4.154-4c0.302-0.334 0.482-0.804 0.482-1.301 0-1.015-0.774-1.781-1.8-1.781-1.283 0-1.933 0.718-1.933 2.133 0 0.295-0.238 0.533-0.533 0.533s-0.533-0.238-0.533-0.533c0-2.004 1.122-3.199 3-3.199 1.607 0 2.867 1.251 2.867 2.847 0 0.762-0.278 1.488-0.783 2.044l-3.227 3.108h3.477c0.295 0 0.533 0.239 0.533 0.533zM18.675 1.306c-0.877-0.158-1.776-0.239-2.675-0.239-8.234 0-14.933 6.699-14.933 14.933v0.547c0.447-0.338 0.997-0.547 1.599-0.547h2.134c1.47 0 2.667 1.197 2.667 2.667v6.399c0 1.471-1.196 2.668-2.667 2.668h-2.134c-1.47 0-2.666-1.197-2.666-2.668v-9.066c0-8.822 7.178-16 16-16 0.962 0 1.925 0.086 2.864 0.256 0.29 0.053 0.482 0.33 0.43 0.62-0.053 0.29-0.332 0.484-0.62 0.43zM1.067 19.094v5.972c0 0.883 0.717 1.602 1.599 1.602h2.134c0.882 0 1.6-0.719 1.6-1.602v-6.399c0-0.882-0.718-1.599-1.6-1.599h-2.134c-0.882 0-1.599 0.717-1.599 1.599v0.427z"></path>
</svg>
