<!-- Generated by IcoMoon.io -->
<svg version="1.1" xmlns="http://www.w3.org/2000/svg" width="32" height="32" viewBox="0 0 32 32">
<path d="M25.932 32.001c-3.421 0-9.811-4.078-15.902-10.147-6.54-6.516-12.033-14.893-9.332-17.585 0.010-0.010 0.046-0.047 0.057-0.056l4.786-4.078c0.108-0.092 0.251-0.135 0.391-0.126 0.142 0.012 0.274 0.079 0.366 0.188l5.888 6.932c0.154 0.181 0.169 0.442 0.036 0.639l-2.968 4.436 10.62 10.579 4.453-2.956c0.198-0.132 0.461-0.117 0.642 0.036l6.958 5.866c0.109 0.092 0.177 0.223 0.188 0.364s-0.034 0.281-0.126 0.389l-4.091 4.78c-0.007 0.008-0.042 0.045-0.050 0.053-0.46 0.458-1.102 0.686-1.916 0.686zM1.473 5.005c-0.008 0.009-0.016 0.017-0.018 0.018-1.609 1.603 1.828 8.599 9.332 16.076 5.811 5.791 12.039 9.835 15.145 9.835 0.519 0 0.907-0.124 1.153-0.367l3.741-4.37-6.241-5.261-4.483 2.978c-0.212 0.141-0.495 0.113-0.675-0.067l-11.241-11.198c-0.18-0.179-0.209-0.461-0.067-0.673l2.988-4.465-5.281-6.217-4.355 3.711z"></path>
</svg>
