<!-- Generated by IcoMoon.io -->
<svg version="1.1" xmlns="http://www.w3.org/2000/svg" width="32" height="32" viewBox="0 0 32 32">
<path d="M31.792 13.177l-9.584 9.599c-0.104 0.104-0.24 0.157-0.377 0.157s-0.272-0.052-0.377-0.157c-0.208-0.208-0.208-0.546 0-0.754l1.304-1.306-5.371-5.379-16.479 16.505c-0.104 0.104-0.24 0.157-0.377 0.157s-0.272-0.052-0.377-0.157c-0.208-0.208-0.208-0.546 0-0.754l16.479-16.505-5.37-5.379-1.304 1.306c-0.104 0.104-0.24 0.156-0.377 0.156s-0.272-0.052-0.376-0.156c-0.208-0.208-0.208-0.545 0-0.754l9.584-9.6c0.208-0.208 0.545-0.208 0.753 0s0.208 0.546 0 0.755l-1.091 1.092 11.494 11.512 1.091-1.092c0.208-0.208 0.545-0.208 0.753 0s0.208 0.546 0 0.754zM17.702 2.758l-5.684 5.693 11.493 11.512 5.684-5.693-11.493-11.512zM21.121 30.932h10.294c0.294 0 0.532 0.239 0.532 0.533s-0.238 0.534-0.532 0.534h-10.294c-0.294 0-0.533-0.239-0.533-0.534s0.238-0.533 0.533-0.533z"></path>
</svg>
