<!-- Generated by IcoMoon.io -->
<svg version="1.1" xmlns="http://www.w3.org/2000/svg" width="32" height="32" viewBox="0 0 32 32" fill="#005781">
<path d="M26.133 22.401c-3.235 0-5.867-2.632-5.867-5.867 0-0.295 0.238-0.534 0.533-0.534h0.918l3.851-11.2h-9.036v24.533h4.8c0.295 0 0.533 0.239 0.533 0.534s-0.238 0.533-0.533 0.533h-10.667c-0.295 0-0.533-0.238-0.533-0.533s0.238-0.534 0.533-0.534h4.8v-24.533h-9.036l3.852 11.2h0.918c0.295 0 0.533 0.239 0.533 0.534 0 3.235-2.632 5.867-5.867 5.867s-5.867-2.632-5.867-5.867c0-0.295 0.238-0.534 0.533-0.534h0.918l3.851-11.2h-2.636c-0.295 0-0.533-0.238-0.533-0.533s0.238-0.533 0.533-0.533h12.8v-1.6c0-0.295 0.238-0.533 0.533-0.533s0.533 0.238 0.533 0.533v1.6h12.8c0.295 0 0.533 0.238 0.533 0.533s-0.238 0.533-0.533 0.533h-2.636l3.852 11.2h0.918c0.295 0 0.533 0.239 0.533 0.534 0 3.235-2.632 5.867-5.867 5.867zM1.832 17.068c-0.001 0-0.002-0.001-0.003-0.001h-0.733c0.266 2.397 2.303 4.267 4.77 4.267s4.504-1.87 4.77-4.267h-8.803c-0.001 0-0.002 0.001-0.002 0.001zM2.579 16h6.575l-3.288-9.56-3.287 9.56zM26.133 6.44l-3.287 9.56h6.575l-3.288-9.56zM22.101 17.067c-0.001 0-0.002 0.001-0.002 0.001s-0.002-0.001-0.003-0.001h-0.733c0.266 2.397 2.303 4.267 4.77 4.267s4.504-1.87 4.77-4.267h-8.803z"></path>
</svg>
