<!-- Generated by IcoMoon.io -->
<svg version="1.1" xmlns="http://www.w3.org/2000/svg" width="32" height="32" viewBox="0 0 32 32">
<path d="M31.467 22.4h-1.6c-0.295 0-0.533-0.238-0.533-0.533s0.238-0.533 0.533-0.533h1.067v-14.934h-25.6v1.067c0 0.295-0.238 0.533-0.533 0.533s-0.533-0.238-0.533-0.533v-1.6c0-0.294 0.238-0.533 0.533-0.533h26.667c0.295 0 0.533 0.239 0.533 0.533v16c0 0.295-0.238 0.533-0.533 0.533zM27.733 10.133v16.001c0 0.294-0.238 0.533-0.533 0.533h-26.667c-0.295 0-0.533-0.239-0.533-0.533v-16.001c0-0.294 0.238-0.533 0.533-0.533h26.667c0.295 0 0.533 0.239 0.533 0.533zM26.667 10.667h-25.6v14.933h25.6v-14.933zM3.733 22.4h1.6c0.295 0 0.533 0.239 0.533 0.534s-0.238 0.533-0.533 0.533h-1.6c-0.295 0-0.533-0.238-0.533-0.533s0.238-0.534 0.533-0.534zM14.154 13.313c2.231 0 4.046 2.155 4.046 4.804s-1.815 4.804-4.046 4.804-4.046-2.155-4.046-4.804c0-2.649 1.815-4.804 4.046-4.804zM14.154 21.854c1.643 0 2.979-1.676 2.979-3.737s-1.337-3.737-2.979-3.737c-1.643 0-2.98 1.677-2.98 3.737s1.337 3.737 2.98 3.737zM22.4 12.8h1.6c0.295 0 0.533 0.239 0.533 0.533s-0.238 0.533-0.533 0.533h-1.6c-0.295 0-0.533-0.238-0.533-0.533s0.238-0.533 0.533-0.533z"></path>
</svg>
