<!-- Generated by IcoMoon.io -->
<svg version="1.1" xmlns="http://www.w3.org/2000/svg" width="32" height="32" viewBox="0 0 32 32">
<path d="M31.467 8.533h-1.6v16.534c0 0.294-0.238 0.533-0.533 0.533h-3.307l2.721 5.635c0.129 0.265 0.018 0.583-0.248 0.712-0.075 0.036-0.154 0.053-0.231 0.053-0.198 0-0.389-0.11-0.481-0.301l-2.945-6.098h-8.309v4.8c0 0.294-0.238 0.533-0.533 0.533s-0.533-0.238-0.533-0.533v-4.8h-8.308l-2.921 6.097c-0.092 0.191-0.283 0.303-0.482 0.303-0.077 0-0.156-0.016-0.23-0.052-0.266-0.128-0.378-0.446-0.251-0.711l2.7-5.636h-3.309c-0.295 0-0.533-0.239-0.533-0.533v-16.534h-1.6c-0.295 0-0.533-0.239-0.533-0.533v-4.267c0-0.294 0.238-0.533 0.533-0.533h14.933v-2.667c0-0.294 0.238-0.533 0.533-0.533s0.533 0.238 0.533 0.533v2.667h14.933c0.295 0 0.533 0.239 0.533 0.533v4.267c0 0.294-0.238 0.533-0.533 0.533zM3.2 24.533h25.6v-16h-25.6v16zM30.933 4.267h-29.867v3.2h29.867v-3.2z"></path>
</svg>
