<!-- Generated by IcoMoon.io -->
<svg version="1.1" xmlns="http://www.w3.org/2000/svg" width="32" height="32" viewBox="0 0 32 32">
<path d="M31.392 12.63h-2.004c-0.369 0-0.668-0.268-0.668-0.637s0.299-0.699 0.668-0.699h2.004c0.369 0 0.668 0.331 0.668 0.699s-0.299 0.637-0.668 0.637zM27.857 3.798c-0.13 0.13-0.301 0.196-0.472 0.196s-0.342-0.065-0.472-0.196c-0.261-0.26-0.261-0.682 0-0.942l2.672-2.666c0.261-0.261 0.683-0.261 0.944 0s0.261 0.683 0 0.942l-2.672 2.666zM21.305 21.158c-0.49 0.442-0.602 1.395-0.602 1.693v5.522c0 0.034-0.003 0.068-0.008 0.102-0.188 1.218-1.406 3.518-4.667 3.518s-4.478-2.3-4.667-3.518c-0.005-0.033-0.008-0.067-0.008-0.102v-5.52c-0.003-0.317-0.117-1.235-0.608-1.701-3.096-2.331-4.736-5.37-4.736-8.796 0-5.713 4.494-10.361 10.019-10.361s10.019 4.648 10.019 10.361c0 3.43-1.642 6.471-4.742 8.803zM16.029 30.659c2.728 0 3.259-1.954 3.339-2.347v-2.944c-1.111 0.458-2.198 0.631-3.188 0.631-1.451 0-2.681-0.354-3.49-0.665v2.979c0.077 0.381 0.604 2.346 3.339 2.346zM16.029 3.328c-4.788 0-8.683 4.050-8.683 9.028 0 3.802 2.312 6.324 4.251 7.77 0.011 0.009 0.017 0.021 0.027 0.030 0.009 0.008 0.021 0.010 0.030 0.019 1.006 0.94 1.036 2.501 1.036 2.677v1.042c0.95 0.441 3.776 1.479 6.678 0.003v-1.045c0-0.18 0.030-1.776 1.047-2.687 0.008-0.007 0.017-0.009 0.025-0.015 0.009-0.007 0.012-0.017 0.021-0.024 1.939-1.446 4.251-3.968 4.251-7.77 0-4.978-3.895-9.028-8.683-9.028zM2.476 23.797c-0.13 0.13-0.301 0.196-0.472 0.196s-0.342-0.065-0.472-0.196c-0.261-0.261-0.261-0.683 0-0.942l2.672-2.666c0.261-0.261 0.683-0.261 0.944 0s0.261 0.682 0 0.942l-2.672 2.667zM4.675 3.994c-0.171 0-0.342-0.065-0.472-0.196l-2.672-2.666c-0.261-0.26-0.261-0.682 0-0.942s0.683-0.261 0.944 0l2.672 2.666c0.261 0.26 0.261 0.683 0 0.942-0.13 0.13-0.301 0.196-0.472 0.196zM3.34 11.993c0 0.368-0.299 0.637-0.668 0.637h-2.004c-0.369 0-0.668-0.268-0.668-0.637s0.299-0.699 0.668-0.699h2.004c0.369 0 0.668 0.331 0.668 0.699zM27.858 20.189l2.672 2.666c0.261 0.26 0.261 0.682 0 0.942-0.13 0.13-0.301 0.196-0.472 0.196s-0.342-0.065-0.472-0.196l-2.672-2.667c-0.261-0.26-0.261-0.682 0-0.942s0.683-0.261 0.944 0z"></path>
</svg>
