<!-- Generated by IcoMoon.io -->
<svg version="1.1" xmlns="http://www.w3.org/2000/svg" width="32" height="32" viewBox="0 0 32 32">
<path d="M16 32c-8.822 0-16-7.178-16-16s7.178-16 16-16 16 7.178 16 16c0 8.822-7.178 16-16 16zM16 1.067c-8.234 0-14.933 6.699-14.933 14.933s6.699 14.933 14.933 14.933c8.235 0 14.933-6.699 14.933-14.933s-6.699-14.933-14.933-14.933zM14.477 21.697c-0.099 0.106-0.235 0.167-0.379 0.17-0.004 0-0.008 0-0.012 0-0.14 0-0.275-0.055-0.374-0.153l-6.086-6.001c-0.21-0.207-0.212-0.545-0.005-0.754 0.206-0.21 0.545-0.213 0.754-0.006l5.695 5.614 9.54-10.264c0.201-0.217 0.538-0.228 0.754-0.028s0.228 0.538 0.027 0.754l-9.913 10.667z"></path>
</svg>
