<!-- Generated by IcoMoon.io -->
<svg version="1.1" xmlns="http://www.w3.org/2000/svg" width="32" height="32" viewBox="0 0 32 32">
<path d="M31.822 1.113l-16.66 19.326c-0.117 0.136-0.285 0.219-0.464 0.23-0.013 0.001-0.027 0.001-0.040 0.001-0.165 0-0.325-0.061-0.448-0.173l-7.331-6.664c-0.272-0.248-0.292-0.669-0.044-0.942s0.668-0.292 0.941-0.045l6.824 6.204 16.213-18.808c0.241-0.279 0.662-0.309 0.94-0.069 0.279 0.24 0.31 0.66 0.069 0.939zM19.717 4.985c-1.572-0.701-2.99-0.975-5.059-0.975-7.349 0-13.328 5.979-13.328 13.329 0 7.348 5.979 13.328 13.328 13.328s13.328-5.98 13.328-13.328c0-1.476-0.237-2.471-0.675-3.789-0.116-0.35 0.073-0.727 0.423-0.842 0.351-0.117 0.727 0.073 0.842 0.423 0.47 1.416 0.742 2.559 0.742 4.208 0 8.084-6.577 14.66-14.661 14.66s-14.661-6.576-14.661-14.66c0-8.085 6.577-14.661 14.661-14.661 2.244 0 3.868 0.316 5.603 1.090 0.336 0.15 0.486 0.545 0.337 0.881s-0.544 0.486-0.88 0.337z"></path>
</svg>
