<!-- Generated by IcoMoon.io -->
<svg version="1.1" xmlns="http://www.w3.org/2000/svg" width="32" height="32" viewBox="0 0 32 32">
<path d="M29.405 26.667h-26.81c-1.431 0-2.595-1.148-2.595-2.559v-16.214c0-1.411 1.164-2.56 2.595-2.56h26.81c1.431 0 2.595 1.149 2.595 2.56v16.214c0 1.411-1.164 2.559-2.595 2.559zM1.067 24.107c0 0.823 0.686 1.493 1.529 1.493h26.81c0.843 0 1.529-0.669 1.529-1.493v-16.214c0-0.113-0.015-0.222-0.039-0.327l-14.563 11.519c-0.097 0.077-0.214 0.115-0.331 0.115s-0.234-0.038-0.331-0.115l-14.563-11.519c-0.024 0.106-0.039 0.214-0.039 0.327v16.214zM29.405 6.4h-26.81c-0.332 0-0.636 0.106-0.887 0.282l14.292 11.305 14.292-11.305c-0.251-0.176-0.556-0.282-0.887-0.282z"></path>
</svg>
