<!-- Generated by IcoMoon.io -->
<svg version="1.1" xmlns="http://www.w3.org/2000/svg" width="32" height="32" viewBox="0 0 32 32">
<path d="M32.021 8.056v18.609c0 0.588-0.478 1.066-1.067 1.066h-7.472c-0.295 0-0.533-0.239-0.533-0.533s0.239-0.533 0.533-0.533h7.472v-18.155h-6.93c-0.295 0-0.542-0.212-0.542-0.507v-6.967h-11.203l-0.004 0.569c0 0.294-0.239 0.533-0.533 0.533s-0.534-0.239-0.534-0.533v-0.533c0-0.588 0.479-1.067 1.067-1.067h11.741c0.012 0 0.022 0.006 0.033 0.007 0.049 0.003 0.095 0.012 0.14 0.028 0.017 0.006 0.035 0.011 0.051 0.018 0.053 0.025 0.102 0.057 0.146 0.099 0.002 0.002 0.005 0.003 0.007 0.006l7.413 7.405c0.017 0.012 0.025 0.032 0.040 0.046 0.016 0.014 0.028 0.031 0.042 0.048 0.083 0.094 0.143 0.207 0.143 0.341 0 0.019-0.009 0.035-0.011 0.053zM24.55 1.825l0.008 5.617h5.873l-5.881-5.617zM12.841 4.277c0.050 0.003 0.097 0.013 0.144 0.029 0.016 0.006 0.032 0.010 0.047 0.017 0.056 0.026 0.109 0.058 0.154 0.104l7.413 7.407c0.017 0.012 0.025 0.032 0.041 0.046s0.028 0.031 0.042 0.047c0.082 0.094 0.143 0.207 0.143 0.342 0 0.019-0.009 0.035-0.011 0.053v18.608c0 0.588-0.479 1.067-1.067 1.067h-18.679c-0.589 0-1.067-0.478-1.067-1.067v-25.593c0-0.588 0.478-1.066 1.067-1.066h11.741c0.011 0 0.021 0.006 0.032 0.006zM13.342 6.091v5.645h5.649l-5.649-5.645zM12.275 12.269v-6.962h-11.207l-0.001 25.623h18.679v-18.149h-6.934c-0.295 0-0.538-0.218-0.538-0.512z"></path>
</svg>
