<!-- Generated by IcoMoon.io -->
<svg version="1.1" xmlns="http://www.w3.org/2000/svg" width="40" height="32" viewBox="0 0 40 32">
<path d="M38.095 31.996h-36.090c-1.105 0-2.005-0.897-2.005-2v-27.998c0-1.103 0.9-2 2.005-2h12.876c0.027 0 0.051 0.013 0.078 0.016 0.047 0.005 0.092 0.012 0.136 0.027 0.043 0.015 0.081 0.036 0.12 0.059 0.025 0.014 0.052 0.019 0.075 0.037l4.988 3.86h17.817c1.105 0 2.005 0.897 2.005 2v23.999c0 1.103-0.9 2-2.005 2zM2.005 30.663h36.090c0.368 0 0.668-0.299 0.668-0.666v-19.363h-37.427v19.363c0 0.367 0.3 0.666 0.668 0.666zM38.095 5.286h-17.849c-0.065 0.020-0.128 0.044-0.196 0.044-0.144 0-0.288-0.045-0.41-0.139l-5.059-3.915h-12.577c-0.368 0-0.668 0.354-0.668 0.722v7.332h37.427v-3.333c0-0.368-0.3-0.711-0.668-0.711z"></path>
</svg>
