<!-- Generated by IcoMoon.io -->
<svg version="1.1" xmlns="http://www.w3.org/2000/svg" width="32" height="32" viewBox="0 0 32 32">
<path d="M29.333 26.667h-26.667c-1.47 0-2.667-1.196-2.667-2.666v-16.001c0-1.47 1.196-2.666 2.667-2.666h26.667c1.47 0 2.667 1.196 2.667 2.666v16.001c0 1.47-1.196 2.666-2.667 2.666zM30.933 8c0-0.882-0.718-1.6-1.6-1.6h-26.667c-0.882 0-1.6 0.718-1.6 1.6v16.001c0 0.882 0.718 1.599 1.6 1.599h26.667c0.882 0 1.6-0.717 1.6-1.599v-16.001zM26.667 17.067h-6.4c-0.294 0-0.533-0.239-0.533-0.533v-6.4c0-0.295 0.239-0.533 0.533-0.533h6.4c0.294 0 0.533 0.238 0.533 0.533v6.4c0 0.294-0.239 0.533-0.533 0.533zM26.133 10.667h-5.333v5.333h5.333v-5.333zM15.444 21.334h-10.667c-0.294 0-0.533-0.239-0.533-0.534s0.239-0.533 0.533-0.533h10.667c0.294 0 0.533 0.238 0.533 0.533s-0.239 0.534-0.533 0.534zM15.444 17.067h-10.667c-0.294 0-0.533-0.239-0.533-0.533 0-0.295 0.239-0.534 0.533-0.534h10.667c0.294 0 0.533 0.238 0.533 0.534 0 0.294-0.239 0.533-0.533 0.533zM9.067 11.733h-4.267c-0.294 0-0.533-0.238-0.533-0.533s0.239-0.533 0.533-0.533h4.267c0.294 0 0.533 0.238 0.533 0.533s-0.239 0.533-0.533 0.533z"></path>
</svg>
