<!-- Generated by IcoMoon.io -->
<svg version="1.1" xmlns="http://www.w3.org/2000/svg" width="32" height="32" viewBox="0 0 32 32">
<path d="M23.084 31.896h-6.044c-2.526 0-4.185-0.668-5.647-1.258-1.159-0.467-2.16-0.87-3.405-0.87h-4.26c-0.105 0-0.207-0.031-0.294-0.089-0.097-0.064-2.368-1.628-2.368-6.827 0-5.073 1.614-7.63 1.683-7.737 0.074-0.114 0.188-0.196 0.32-0.228 0.047-0.011 4.71-1.184 7.553-4.025 2.802-2.798 4.306-6.992 4.518-9.703 0.056-0.719 0.708-1.267 1.444-1.159 1.106 0.165 3.677 1.066 3.677 5.872 0 2.305-0.619 5.080-0.933 6.339h7.298c2.321 0 3.706 1.075 3.706 2.876 0 1.059-0.469 1.786-1.042 2.259 0.877 0.403 1.645 1.21 1.645 2.679 0 1.3-0.649 2.083-1.488 2.493 0.5 0.433 0.885 1.101 0.885 2.095 0 1.532-1.023 2.364-2.085 2.767 0.349 0.368 0.603 0.895 0.603 1.632 0 2.391-2.305 2.882-5.764 2.882zM3.918 28.703h4.069c1.451 0 2.594 0.46 3.803 0.948 1.441 0.58 2.93 1.18 5.249 1.18h6.044c4.699 0 4.699-1.051 4.699-1.818 0-1.181-1.058-1.3-1.179-1.309-0.282-0.022-0.497-0.26-0.491-0.542s0.232-0.51 0.514-0.519c0.107-0.004 2.637-0.124 2.637-2.028 0-1.623-1.54-1.726-1.605-1.73-0.293-0.016-0.518-0.266-0.503-0.558s0.26-0.516 0.557-0.504c0.001 0 0.002 0 0.003 0 0.679 0 2.152-0.177 2.152-1.796 0-1.867-1.805-1.962-2.166-1.962-0.277 0-0.514-0.211-0.538-0.486s0.159-0.523 0.432-0.57c0.169-0.031 1.668-0.354 1.668-1.92 0-1.498-1.394-1.839-2.599-1.839h-8c-0.166 0-0.353-0.051-0.454-0.183s-0.133-0.305-0.088-0.465c0.011-0.038 1.070-3.854 1.070-6.729 0-3.835-1.734-4.666-2.769-4.82-0.133 0-0.217 0.084-0.225 0.189-0.227 2.901-1.835 7.383-4.827 10.373-2.721 2.718-6.816 3.969-7.827 4.246-0.333 0.623-1.417 2.967-1.417 6.99 0 3.922 1.383 5.481 1.788 5.851z"></path>
</svg>
