<!-- Generated by IcoMoon.io -->
<svg version="1.1" xmlns="http://www.w3.org/2000/svg" width="32" height="32" viewBox="0 0 32 32">
<path d="M16 32.001c-7.905 0-13.867-2.268-13.867-5.274 0-1.654 1.793-3.38 4.461-4.297 0.281-0.096 0.583 0.052 0.678 0.331s-0.052 0.582-0.331 0.678c-2.457 0.843-3.741 2.293-3.741 3.288 0 1.99 5.257 4.207 12.8 4.207s12.8-2.217 12.8-4.207c0-0.97-1.312-2.453-3.743-3.288-0.279-0.096-0.427-0.399-0.331-0.678s0.397-0.427 0.678-0.331c2.67 0.917 4.463 2.644 4.463 4.297 0 3.006-5.962 5.274-13.867 5.274zM16.361 27.594c-0.102 0.093-0.232 0.14-0.361 0.14s-0.259-0.047-0.361-0.14c-0.377-0.347-9.24-8.585-9.24-17.31 0-5.67 4.307-10.283 9.601-10.283 5.293 0 9.599 4.613 9.599 10.283 0 8.725-8.861 16.963-9.238 17.31zM16 1.067c-4.706 0-8.534 4.134-8.534 9.217 0 7.295 6.867 14.527 8.534 16.175 1.667-1.649 8.532-8.887 8.532-16.175 0-5.082-3.828-9.217-8.532-9.217zM11.2 9.602c0-2.647 2.154-4.801 4.801-4.801 2.646 0 4.799 2.154 4.799 4.801 0 2.646-2.153 4.799-4.799 4.799-2.647 0-4.801-2.153-4.801-4.799zM19.733 9.602c0-2.059-1.675-3.734-3.732-3.734-2.059 0-3.734 1.675-3.734 3.734 0 2.058 1.675 3.732 3.734 3.732 2.058 0 3.732-1.674 3.732-3.732z"></path>
</svg>
