<!-- Generated by IcoMoon.io -->
<svg version="1.1" xmlns="http://www.w3.org/2000/svg" width="27" height="32" viewBox="0 0 27 32">
<path d="M25.067 32h-23.467c-0.882 0-1.6-0.717-1.6-1.599v-18.134c0-0.882 0.718-1.6 1.6-1.6h3.733v-2.666c0-4.412 3.589-8.001 8-8.001s8 3.589 8 8.001v2.666h3.733c0.882 0 1.6 0.718 1.6 1.6v18.134c0 0.882-0.718 1.599-1.6 1.599zM13.333 1.067c-3.823 0-6.933 3.11-6.933 6.933v2.666h13.867v-2.666c0-3.823-3.11-6.933-6.933-6.933zM25.6 12.267c0-0.294-0.239-0.533-0.533-0.533h-23.467c-0.294 0-0.533 0.239-0.533 0.533v18.134c0 0.294 0.239 0.533 0.533 0.533h23.467c0.294 0 0.533-0.239 0.533-0.533v-18.134zM13.867 21.258v3.809c0 0.295-0.239 0.533-0.533 0.533s-0.533-0.238-0.533-0.533v-3.809c-0.917-0.238-1.6-1.066-1.6-2.057 0-1.177 0.957-2.134 2.133-2.134s2.133 0.957 2.133 2.134c0 0.991-0.683 1.819-1.6 2.057zM13.333 18.133c-0.588 0-1.067 0.478-1.067 1.067 0 0.588 0.478 1.067 1.067 1.067s1.067-0.479 1.067-1.067c0-0.589-0.478-1.067-1.067-1.067z"></path>
</svg>
