<!-- Generated by IcoMoon.io -->
<svg version="1.1" xmlns="http://www.w3.org/2000/svg" width="32" height="32" viewBox="0 0 32 32" fill="#005781">
<path d="M30.514 23.809l-8.238 4.395c-0.076 0.041-0.162 0.063-0.249 0.063-0.011 0-0.039 0-0.083 0-0.627 0-4.417-0.033-6.807-0.812-0.821-0.267-1.803-0.623-2.753-0.969-1.847-0.67-3.94-1.431-4.599-1.431-0.865 0-4.403 0.764-5.693 1.058-0.141 0.030-0.286 0.006-0.407-0.069-0.121-0.077-0.205-0.198-0.236-0.337l-1.436-6.557c-0.060-0.274 0.102-0.546 0.372-0.626 8.945-2.613 13.509-1.919 13.699-1.887 0.029 0.005 0.057 0.012 0.085 0.021l8.066 2.715c0.009 0.003 0.014 0.010 0.022 0.013s0.017 0.002 0.025 0.005c0.79 0.351 1.319 1.062 1.499 1.866l4.731-2.385c0.007-0.004 0.014-0.003 0.021-0.006 0.005-0.003 0.009-0.007 0.014-0.010 0.639-0.267 1.34-0.265 1.977 0.004 0.656 0.278 1.163 0.802 1.426 1.477 0.532 1.361-0.113 2.918-1.436 3.471zM30.951 20.724c-0.159-0.404-0.46-0.718-0.847-0.882-0.365-0.155-0.767-0.155-1.133-0.006l-5.194 2.619c-0.034 0.147-0.074 0.294-0.133 0.438-0.278 0.669-0.795 1.182-1.457 1.445-0.306 0.122-0.625 0.181-0.943 0.181-0.342 0-0.684-0.069-1.008-0.209l-7.549-2.47c-0.281-0.092-0.434-0.394-0.341-0.674s0.396-0.433 0.676-0.34l7.573 2.478c0.017 0.006 0.034 0.012 0.050 0.019 0.367 0.163 0.774 0.171 1.146 0.023 0.39-0.155 0.697-0.461 0.863-0.862 0.339-0.815-0.020-1.76-0.798-2.114l-7.983-2.686c-0.45-0.059-4.762-0.529-12.707 1.725l1.214 5.545c1.303-0.29 4.452-0.966 5.404-0.966 0.791 0 2.404 0.565 4.967 1.496 0.941 0.342 1.915 0.696 2.719 0.958 2.148 0.701 5.697 0.755 6.419 0.759l8.165-4.354c0.838-0.353 1.221-1.295 0.898-2.123zM23.395 15.325c-0.031 0.028-0.068 0.044-0.102 0.063-0.021 0.012-0.038 0.028-0.060 0.037-0.065 0.026-0.133 0.041-0.202 0.041s-0.137-0.015-0.201-0.041c-0.022-0.009-0.039-0.026-0.060-0.037-0.035-0.020-0.071-0.035-0.102-0.063l-5.405-4.971c-0.756-0.774-1.195-1.813-1.195-2.798 0-2.108 1.682-3.823 3.749-3.823 1.365 0 2.558 0.75 3.214 1.865 0.656-1.115 1.849-1.865 3.214-1.865 2.067 0 3.749 1.716 3.749 3.823 0 0.985-0.439 2.023-1.174 2.778l-5.426 4.991zM26.245 4.801c-1.477 0-2.678 1.237-2.678 2.756 0 0.295-0.239 0.533-0.535 0.533s-0.535-0.238-0.535-0.533c0-1.519-1.202-2.756-2.678-2.756s-2.678 1.237-2.678 2.756c0 0.703 0.334 1.483 0.871 2.035l5.020 4.617 5.042-4.637c0.517-0.531 0.85-1.311 0.85-2.014 0-1.519-1.202-2.756-2.678-2.756z"></path>
</svg>
