<!-- Generated by IcoMoon.io -->
<svg version="1.1" xmlns="http://www.w3.org/2000/svg" width="32" height="32" viewBox="0 0 32 32">
<path d="M31.792 31.844c-0.104 0.104-0.24 0.156-0.377 0.156s-0.272-0.052-0.376-0.156l-11.44-11.459c-2.084 1.907-4.847 3.082-7.886 3.082-6.46 0-11.715-5.263-11.715-11.733 0-6.469 5.255-11.733 11.715-11.733s11.715 5.264 11.715 11.733c0 3.043-1.172 5.811-3.076 7.898l11.44 11.459c0.208 0.209 0.208 0.546 0 0.754zM11.714 1.067c-5.873 0-10.65 4.786-10.65 10.667 0 5.882 4.778 10.667 10.65 10.667s10.65-4.785 10.65-10.667c0-5.881-4.778-10.667-10.65-10.667z"></path>
</svg>
