<!-- Generated by IcoMoon.io -->
<svg version="1.1" xmlns="http://www.w3.org/2000/svg" width="32" height="32" viewBox="0 0 32 32">
<path d="M30.4 24.001h-17.884l-5.173 6.208c-0.103 0.123-0.254 0.191-0.41 0.191-0.061 0-0.122-0.010-0.181-0.032-0.211-0.076-0.352-0.276-0.352-0.501v-5.866h-4.8c-0.882 0-1.6-0.718-1.6-1.601v-19.2c0-0.883 0.718-1.6 1.6-1.6h28.8c0.882 0 1.6 0.717 1.6 1.6v19.2c0 0.883-0.718 1.601-1.6 1.601zM30.933 3.2c0-0.294-0.239-0.533-0.533-0.533h-28.8c-0.294 0-0.533 0.239-0.533 0.533v19.2c0 0.294 0.239 0.533 0.533 0.533h5.333c0.294 0 0.533 0.239 0.533 0.534v4.926l4.39-5.268c0.005-0.006 0.013-0.009 0.018-0.014 0.026-0.029 0.058-0.050 0.090-0.073 0.026-0.018 0.048-0.038 0.076-0.051 0.030-0.014 0.063-0.020 0.097-0.028 0.035-0.009 0.068-0.019 0.104-0.021 0.009-0.001 0.016-0.005 0.025-0.005h18.133c0.294 0 0.533-0.239 0.533-0.533v-19.2zM16 18.667c-0.588 0-1.067-0.478-1.067-1.067 0-0.588 0.478-1.067 1.067-1.067s1.067 0.479 1.067 1.067c0 0.589-0.478 1.067-1.067 1.067zM16 14.437c-0.294 0-0.533-0.239-0.533-0.534v-6.97c0-0.295 0.239-0.533 0.533-0.533s0.533 0.238 0.533 0.533v6.97c0 0.295-0.239 0.534-0.533 0.534z"></path>
</svg>
