<!-- Generated by IcoMoon.io -->
<svg version="1.1" xmlns="http://www.w3.org/2000/svg" width="32" height="32" viewBox="0 0 32 32">
<path d="M29.867 22.331c0 6.556-3.053 9.61-9.61 9.61h-8.327c-6.593 0-9.797-3.162-9.797-9.666 0-5.782 7.107-12.425 8.871-13.985-0.906-1.223-3.321-4.679-2.966-6.812 0.092-0.554 0.368-0.999 0.797-1.289 0.836-0.563 1.657 0.326 2.316 1.042 0.329 0.357 0.879 0.888 1.123 0.888 0.196 0 0.478-0.348 0.75-0.684 0.512-0.63 1.212-1.426 2.437-1.426 1.072 0 1.757 0.588 2.308 1.061 0.342 0.293 0.637 0.547 0.9 0.547 0.723 0 1.084-0.303 1.543-0.687 0.49-0.41 1.1-0.921 2.177-0.921 0.677 0 1.215 0.382 1.475 1.047 0.626 1.598-0.391 4.778-2.823 7.287 1.854 1.657 8.826 8.265 8.826 13.988zM22.872 1.449c-0.127-0.323-0.307-0.367-0.483-0.367-0.691 0-1.046 0.297-1.495 0.673-0.497 0.417-1.116 0.934-2.225 0.934-0.656 0-1.132-0.408-1.593-0.803-0.482-0.414-0.937-0.804-1.616-0.804-0.718 0-1.152 0.534-1.611 1.099-0.43 0.53-0.874 1.010-1.577 1.010-0.709 0-1.317-0.593-1.905-1.231-0.274-0.298-0.785-0.852-0.979-0.87-0.149 0.117-0.257 0.3-0.301 0.566-0.279 1.676 2.026 5.001 3.009 6.313h7.804c2.503-2.349 3.431-5.342 2.971-6.519zM20.267 9.035h-8.533c-1.15 1.004-8.535 7.704-8.535 13.241 0 5.943 2.496 8.627 8.535 8.627h8.533c5.989 0 8.534-2.586 8.534-8.571 0-5.538-7.382-12.285-8.534-13.297zM16.259 19.619c1.617 0 2.932 1.322 2.932 2.947 0 1.533-1.175 2.841-2.665 2.986l0.001 1.099c0 0.296-0.238 0.537-0.533 0.537s-0.533-0.24-0.533-0.536l-0.001-1.071h-1.598c-0.295 0-0.533-0.239-0.533-0.536 0-0.295 0.238-0.535 0.533-0.535h2.397c1.029 0 1.866-0.908 1.866-1.942s-0.837-1.875-1.866-1.875c-1.616 0-2.931-1.322-2.931-2.947 0-1.345 0.906-2.423 2.132-2.76l0.001-1.191c0-0.297 0.238-0.537 0.533-0.537s0.533 0.241 0.533 0.537l-0.001 1.071h2.132c0.294 0 0.533 0.239 0.533 0.535s-0.238 0.536-0.533 0.536h-2.399c-1.028 0-1.865 0.774-1.865 1.808s0.836 1.875 1.865 1.875z"></path>
</svg>
