<!-- Generated by IcoMoon.io -->
<svg version="1.1" xmlns="http://www.w3.org/2000/svg" width="32" height="32" viewBox="0 0 32 32">
<path d="M30.933 28.832h-2.131v2.636c0 0.295-0.238 0.535-0.533 0.535h-13.858c-0.294 0-0.533-0.24-0.533-0.535v-3.214c0-0.296 0.227-0.488 0.522-0.488h2.143v-2.133h-1.61c-0.294 0-0.522-0.297-0.522-0.593v-3.214c0-0.295 0.228-0.459 0.522-0.459h0.544v-2.755c0-0.296 0.228-0.445 0.523-0.445h13.867c0.294 0 0.534 0.149 0.534 0.445v3.214c0 0.296-0.24 0.608-0.534 0.608h-0.532v2.133h1.598c0.294 0 0.534 0.178 0.534 0.474v3.214c0 0.296-0.239 0.579-0.534 0.579zM14.933 28.832v2.133h12.8v-2.133h-12.8zM15.772 22.36h-0.294l-0.011 2.205h12.8l0.003-2.133h-12.269c-0.084 0-0.159-0.030-0.228-0.073zM29.333 19.232h-12.8v2.133h12.8v-2.133zM30.4 25.632h-12.8v2.133h12.8v-2.133zM25.358 15.934c-0.242 0.167-0.574 0.106-0.741-0.138-2.311-3.379-5.244-6.077-5.951-6.697h-8.533c-1.15 1.004-8.534 7.702-8.534 13.238 0 5.944 2.693 8.595 8.733 8.595h0.882c0.294 0 0.533 0.239 0.533 0.535s-0.238 0.535-0.533 0.535h-0.882c-6.593 0-9.798-3.162-9.798-9.666 0-5.784 7.112-12.428 8.873-13.985-0.905-1.235-3.323-4.748-2.967-6.882 0.092-0.554 0.367-0.999 0.797-1.289 0.838-0.565 1.657 0.326 2.316 1.041 0.329 0.357 0.879 0.955 1.123 0.955 0.196 0 0.477-0.347 0.75-0.684 0.512-0.629 1.212-1.493 2.437-1.493 1.072 0 1.757 0.588 2.308 1.060 0.342 0.294 0.638 0.547 0.901 0.547 0.723 0 1.085-0.303 1.543-0.687 0.49-0.41 1.1-0.921 2.176-0.921 0.677 0 1.215 0.382 1.475 1.047 0.627 1.598-0.391 4.843-2.825 7.358 1.073 0.961 3.879 3.602 6.055 6.782 0.166 0.244 0.105 0.577-0.138 0.745zM21.274 1.442c-0.126-0.323-0.307-0.368-0.484-0.368-0.691 0-1.045 0.297-1.494 0.673-0.498 0.416-1.117 0.934-2.225 0.934-0.656 0-1.132-0.408-1.593-0.803-0.482-0.413-0.938-0.804-1.617-0.804-0.718 0-1.152 0.534-1.611 1.099-0.43 0.53-0.875 1.077-1.576 1.077-0.709 0-1.317-0.66-1.906-1.298-0.274-0.298-0.785-0.852-0.979-0.87-0.149 0.116-0.257 0.299-0.301 0.565-0.279 1.675 2.027 5.070 3.009 6.385h7.804c2.503-2.349 3.433-5.413 2.971-6.59z"></path>
</svg>
