<!-- Generated by IcoMoon.io -->
<svg version="1.1" xmlns="http://www.w3.org/2000/svg" width="32" height="32" viewBox="0 0 32 32" fill="#005781">
<path d="M31.927 21.334c0 3.823-3.103 6.933-6.917 6.933s-6.917-3.11-6.917-6.933c0-0.738 0.118-1.448 0.332-2.116-0.004-0.006-0.012-0.009-0.016-0.016-0.024-0.038-0.675-1.069-2.444-1.069-1.561 0-2.3 0.801-2.48 1.030 0.225 0.683 0.351 1.412 0.351 2.17 0 3.823-3.103 6.933-6.917 6.933s-6.917-3.11-6.917-6.933c0-0.133 0.012-0.263 0.020-0.395-0.019-0.070-0.026-0.145-0.014-0.221l2.058-13.281c0.003-0.028 0.565-3.705 5.385-3.705 0.294 0 0.532 0.239 0.532 0.534s-0.238 0.533-0.532 0.533c-3.903 0-4.329 2.763-4.333 2.792l-1.427 9.214c1.269-1.471 3.14-2.407 5.228-2.407 2.65 0 4.954 1.503 6.115 3.702 0.513-0.458 1.452-1.036 2.93-1.036 1.503 0 2.427 0.598 2.917 1.063 1.157-2.214 3.468-3.73 6.129-3.73 2.088 0 3.958 0.936 5.228 2.407l-1.426-9.206c-0.018-0.119-0.467-2.801-4.334-2.801-0.294 0-0.532-0.239-0.532-0.533s0.238-0.534 0.532-0.534c4.82 0 5.382 3.676 5.387 3.713l2.057 13.272c0.012 0.076 0.005 0.15-0.014 0.221 0.007 0.131 0.020 0.261 0.020 0.395zM6.92 15.467c-3.227 0-5.853 2.632-5.853 5.867 0 3.234 2.626 5.866 5.853 5.866s5.853-2.632 5.853-5.866c0-3.235-2.626-5.867-5.853-5.867zM25.011 15.467c-3.227 0-5.853 2.632-5.853 5.867 0 3.234 2.626 5.866 5.853 5.866s5.853-2.632 5.853-5.866c0-3.235-2.626-5.867-5.853-5.867z"></path>
</svg>
