<!-- Generated by IcoMoon.io -->
<svg version="1.1" xmlns="http://www.w3.org/2000/svg" width="32" height="32" viewBox="0 0 32 32" fill="#005781">
<path d="M32 20.8c0 0.295-0.238 0.533-0.533 0.533h-1.691l-1.518 8.099c-0.047 0.252-0.268 0.435-0.524 0.435h-3.2c-0.25 0-0.467-0.173-0.521-0.418l-1.067-4.8c-0.064-0.288 0.117-0.573 0.405-0.636s0.572 0.117 0.636 0.405l0.974 4.382h2.33l1.518-8.099c0.004-0.020 0.016-0.034 0.021-0.053 0.011-0.035 0.023-0.067 0.040-0.099 0.017-0.030 0.035-0.057 0.056-0.083s0.045-0.050 0.071-0.071c0.027-0.022 0.053-0.040 0.084-0.056 0.029-0.017 0.059-0.029 0.092-0.040s0.068-0.017 0.103-0.021c0.020-0.002 0.036-0.012 0.057-0.012h1.6v-3.667c0-0.012 0.006-0.022 0.006-0.033-0.001-0.012-0.006-0.022-0.006-0.034 0-2.836-1.261-5.867-4.8-5.867-0.294 0-0.533-0.238-0.533-0.533s0.239-0.533 0.533-0.533c3.564 0 5.867 2.722 5.867 6.933 0 0.012-0.006 0.022-0.007 0.034 0.001 0.011 0.007 0.021 0.007 0.033v4.2zM22.4 5.867c0-2.059 1.675-3.734 3.733-3.734s3.733 1.675 3.733 3.734c0 2.059-1.675 3.733-3.733 3.733s-3.733-1.675-3.733-3.733zM26.133 8.533c1.47 0 2.667-1.196 2.667-2.666s-1.196-2.667-2.667-2.667c-1.47 0-2.667 1.196-2.667 2.667s1.196 2.666 2.667 2.666zM22.933 14.4c0 0.012-0.006 0.022-0.007 0.033 0.001 0.012 0.007 0.022 0.007 0.034v6.333c0 0.295-0.239 0.533-0.533 0.533h-2.717l-1.019 10.186c-0.027 0.273-0.257 0.481-0.531 0.481h-4.267c-0.274 0-0.503-0.208-0.531-0.481l-1.019-10.186h-2.717c-0.294 0-0.533-0.238-0.533-0.533v-6.333c0-0.012 0.006-0.022 0.006-0.034-0.001-0.011-0.006-0.021-0.006-0.033 0-3.823 3.11-6.933 6.933-6.933s6.933 3.11 6.933 6.933zM16 8.533c-3.235 0-5.867 2.632-5.867 5.867 0 0.012-0.006 0.022-0.007 0.033 0.001 0.012 0.007 0.022 0.007 0.034v5.8h2.667c0.032 0 0.060 0.013 0.090 0.018s0.060 0.008 0.087 0.018c0.039 0.014 0.071 0.035 0.106 0.057 0.024 0.015 0.049 0.028 0.070 0.047 0.028 0.025 0.048 0.054 0.070 0.083 0.019 0.026 0.039 0.050 0.054 0.080 0.015 0.031 0.022 0.066 0.031 0.101 0.007 0.026 0.021 0.048 0.023 0.076l1.019 10.187h3.301l1.019-10.187c0.003-0.028 0.017-0.050 0.023-0.076 0.009-0.035 0.015-0.069 0.031-0.101 0.015-0.030 0.035-0.054 0.055-0.081 0.021-0.029 0.041-0.058 0.068-0.082 0.022-0.020 0.047-0.033 0.073-0.049 0.033-0.021 0.065-0.042 0.103-0.055 0.028-0.010 0.059-0.013 0.089-0.018s0.058-0.018 0.090-0.018h2.667v-5.8c0-0.012 0.006-0.022 0.007-0.034-0.001-0.011-0.007-0.021-0.007-0.033 0-3.235-2.632-5.867-5.867-5.867zM12.267 3.733c0-2.058 1.675-3.732 3.733-3.732s3.733 1.674 3.733 3.732c0 2.059-1.675 3.734-3.733 3.734s-3.733-1.675-3.733-3.734zM16 6.4c1.47 0 2.667-1.197 2.667-2.667s-1.196-2.666-2.667-2.666-2.667 1.196-2.667 2.666c0 1.47 1.196 2.667 2.667 2.667zM5.868 9.6c-2.059 0-3.734-1.675-3.734-3.733s1.675-3.734 3.734-3.734c2.058 0 3.732 1.675 3.732 3.734s-1.674 3.733-3.732 3.733zM5.868 3.2c-1.471 0-2.668 1.196-2.668 2.667s1.197 2.666 2.668 2.666c1.47 0 2.666-1.196 2.666-2.666s-1.196-2.667-2.666-2.667zM6.4 10.133c0 0.295-0.239 0.533-0.533 0.533-3.539 0-4.8 3.031-4.8 5.867 0 0.012-0.006 0.022-0.007 0.034 0.001 0.011 0.007 0.021 0.007 0.033v3.667h1.6c0.020 0 0.038 0.010 0.058 0.012 0.035 0.004 0.068 0.010 0.102 0.021s0.063 0.023 0.094 0.040c0.029 0.017 0.056 0.034 0.082 0.056s0.050 0.045 0.071 0.072c0.021 0.026 0.039 0.052 0.056 0.083 0.017 0.031 0.029 0.063 0.040 0.099 0.005 0.018 0.018 0.033 0.021 0.053l1.518 8.099h2.33l0.974-4.382c0.063-0.287 0.349-0.468 0.636-0.405s0.469 0.348 0.405 0.636l-1.067 4.8c-0.054 0.244-0.27 0.418-0.521 0.418h-3.2c-0.257 0-0.477-0.182-0.524-0.435l-1.518-8.099h-1.691c-0.294 0-0.533-0.238-0.533-0.533v-4.2c0-0.012 0.006-0.022 0.006-0.033-0.001-0.012-0.006-0.022-0.006-0.034 0-4.212 2.303-6.933 5.867-6.933 0.294 0 0.533 0.238 0.533 0.533z"></path>
</svg>
