<!-- Generated by IcoMoon.io -->
<svg version="1.1" xmlns="http://www.w3.org/2000/svg" width="32" height="32" viewBox="0 0 32 32">
<path d="M17.333 31.999c-8.087 0-14.667-6.579-14.667-14.667 0-0.368 0.298-0.667 0.667-0.667s0.667 0.299 0.667 0.667c0 7.352 5.981 13.333 13.333 13.333s13.333-5.981 13.333-13.333c0-7.352-5.981-13.333-13.333-13.333-0.369 0-0.667-0.299-0.667-0.667s0.298-0.667 0.667-0.667c8.087 0 14.667 6.58 14.667 14.667s-6.579 14.667-14.667 14.667zM14.653 13.985c0 0.369-0.298 0.667-0.667 0.667h-13.225c-0.031 0.005-0.063 0.006-0.095 0.006-0.369 0-0.667-0.291-0.667-0.659v-0.015c0.008-7.703 6.282-13.977 13.986-13.985h0.001c0.001 0 0.004 0 0.006 0h0.007c0.001 0 0.001 0 0.001 0 0.368 0 0.667 0.299 0.667 0.666 0 0.045-0.005 0.090-0.013 0.133v13.187zM13.32 1.35c-6.441 0.343-11.626 5.528-11.969 11.969h11.969v-11.969z"></path>
</svg>
