<!-- Generated by IcoMoon.io -->
<svg version="1.1" xmlns="http://www.w3.org/2000/svg" width="32" height="32" viewBox="0 0 32 32">
<path d="M27.173 11.539l3.257 3.007c1.043 1.052 1.043 2.735 0.017 3.77l-13.157 12.913c-0.51 0.513-1.182 0.77-1.855 0.77-0.675 0-1.349-0.258-1.863-0.775l-12.809-12.908c-1.025-1.035-1.025-2.718-0.001-3.754l2.299-2.175c0.502-0.507 1.149-0.739 1.759-0.627 0.613 0.113 1.134 0.563 1.433 1.233 0.013 0.027 1.395 3.022 3.919 3.022 2.53 0 4.667-2.264 4.667-4.943 0-2.548-2.971-3.867-3.001-3.88-0.673-0.304-1.119-0.83-1.231-1.447s0.118-1.267 0.633-1.786l2.31-2.626c0.517-0.524 1.178-0.799 1.883-0.799 0.001 0 0.001 0 0.001 0 0.705 0 1.366 0.276 1.862 0.775l3.002 3.3c0.561-2.63 2.884-4.609 5.659-4.609 3.193 0 5.79 2.618 5.79 5.835 0 2.797-1.963 5.138-4.572 5.704zM25.955 1.067c-2.609 0-4.732 2.139-4.732 4.768 0 0.005-0.003 0.010-0.003 0.015-0.001 0.024-0.010 0.047-0.014 0.071-0.008 0.045-0.013 0.091-0.031 0.132-0.004 0.009-0.012 0.015-0.017 0.025-0.028 0.053-0.061 0.103-0.104 0.144-0.002 0.001-0.002 0.004-0.004 0.005-0.011 0.011-0.026 0.014-0.037 0.023-0.041 0.032-0.083 0.062-0.132 0.081-0.028 0.011-0.058 0.012-0.087 0.018-0.033 0.006-0.064 0.020-0.099 0.020-0.005 0-0.010-0.003-0.015-0.003-0.033-0.001-0.065-0.013-0.097-0.020-0.035-0.007-0.071-0.011-0.102-0.025-0.025-0.011-0.044-0.030-0.067-0.045-0.035-0.023-0.071-0.043-0.1-0.073-0.003-0.004-0.008-0.005-0.011-0.008l-3.772-4.148c-0.28-0.282-0.675-0.446-1.098-0.446s-0.817 0.164-1.113 0.463l-2.311 2.627c-0.291 0.294-0.412 0.592-0.363 0.862 0.050 0.271 0.269 0.507 0.617 0.665 0.142 0.061 3.634 1.614 3.634 4.856 0 3.314-2.569 6.010-5.725 6.010-3.211 0-4.817-3.502-4.884-3.651-0.156-0.351-0.39-0.571-0.659-0.621-0.272-0.052-0.564 0.073-0.831 0.343l-2.299 2.175c-0.601 0.608-0.601 1.615 0.012 2.234l12.809 12.908c0.614 0.618 1.613 0.618 2.227-0.001l13.157-12.913c0.609-0.613 0.609-1.621-0.006-2.24l-4.1-3.786c-0.003-0.003-0.004-0.007-0.007-0.010-0.029-0.028-0.049-0.063-0.070-0.098-0.016-0.024-0.037-0.045-0.048-0.071-0.011-0.025-0.012-0.054-0.019-0.081-0.011-0.041-0.024-0.080-0.025-0.122 0-0.004-0.002-0.007-0.002-0.011 0-0.027 0.011-0.050 0.015-0.075 0.006-0.040 0.009-0.079 0.023-0.117 0.014-0.037 0.038-0.067 0.060-0.1 0.014-0.022 0.022-0.048 0.041-0.068 0.003-0.003 0.007-0.004 0.010-0.007 0.029-0.030 0.065-0.051 0.101-0.074 0.022-0.014 0.042-0.035 0.067-0.045 0.028-0.013 0.060-0.014 0.090-0.022 0.037-0.009 0.073-0.022 0.111-0.022 0.004 0 0.008-0.003 0.012-0.003 2.609 0 4.732-2.14 4.732-4.77s-2.123-4.768-4.732-4.768z"></path>
</svg>
