<!-- Generated by IcoMoon.io -->
<svg version="1.1" xmlns="http://www.w3.org/2000/svg" width="38" height="32" viewBox="0 0 38 32">
<path d="M35.147 28.799h-1.547v2.4c0 0.442-0.358 0.8-0.8 0.8h-3.2c-0.442 0-0.8-0.358-0.8-0.8v-2.4h-19.2v2.4c0 0.442-0.358 0.8-0.8 0.8h-3.2c-0.442 0-0.8-0.358-0.8-0.8v-2.4h-1.547c-1.794 0-3.253-1.468-3.253-3.273v-22.254c0-1.805 1.459-3.273 3.253-3.273h31.894c1.794 0 3.253 1.468 3.253 3.273v22.254c0 1.805-1.459 3.273-3.253 3.273zM30.4 30.399h1.6v-1.6h-1.6v1.6zM6.4 30.399h1.6v-1.6h-1.6v1.6zM36.8 3.272c0-0.922-0.742-1.673-1.653-1.673h-31.894c-0.911 0-1.653 0.75-1.653 1.673v22.254c0 0.922 0.742 1.672 1.653 1.672h31.894c0.911 0 1.653-0.75 1.653-1.672v-22.254zM26.402 21.599c-3.971 0-7.202-3.23-7.202-7.2s3.23-7.201 7.202-7.201c3.97 0 7.198 3.23 7.198 7.201s-3.229 7.2-7.198 7.2zM30.866 11.034c-0.022 0.030-0.034 0.064-0.060 0.090l-3.839 3.84c-0.156 0.156-0.361 0.234-0.566 0.234s-0.41-0.078-0.566-0.234c-0.313-0.313-0.313-0.819 0-1.131l3.839-3.84c0.026-0.026 0.061-0.038 0.090-0.060-0.938-0.709-2.101-1.134-3.364-1.134-3.089 0-5.602 2.512-5.602 5.6s2.513 5.6 5.602 5.6c3.086 0 5.598-2.512 5.598-5.6 0-1.263-0.426-2.426-1.134-3.365zM14.4 18.398h1.6v1.601h-1.6v-1.601zM14.4 13.599h1.6v1.6h-1.6v-1.6zM14.4 8.799h1.6v1.6h-1.6v-1.6zM9.6 18.398h1.6v1.601h-1.6v-1.601zM9.6 13.599h1.6v1.6h-1.6v-1.6zM9.6 8.799h1.6v1.6h-1.6v-1.6zM4.8 18.398h1.6v1.601h-1.6v-1.601zM4.8 13.599h1.6v1.6h-1.6v-1.6zM4.8 8.799h1.6v1.6h-1.6v-1.6z"></path>
</svg>
