<!-- Generated by IcoMoon.io -->
<svg version="1.1" xmlns="http://www.w3.org/2000/svg" width="32" height="32" viewBox="0 0 32 32">
<path d="M31.791 31.090c0.208 0.208 0.208 0.546 0 0.754-0.104 0.105-0.24 0.157-0.377 0.157s-0.273-0.052-0.377-0.157l-11.324-11.342c-0.001-0.001-0.001-0.002-0.001-0.002-2.049 1.867-4.786 2.997-7.858 2.997-6.538 0-11.858-5.074-11.858-11.621s5.319-11.876 11.858-11.876c6.538 0 11.601 5.327 11.601 11.876 0 3.077-1.127 5.818-2.991 7.87 0.001 0.001 0.002 0.001 0.002 0.002l11.324 11.342zM11.855 1.067c-5.951 0-10.793 4.849-10.793 10.809s4.841 10.555 10.793 10.555c5.95 0 10.535-4.595 10.535-10.555s-4.585-10.809-10.535-10.809zM11.712 11.2c1.469 0 2.663 1.197 2.663 2.667 0 1.287-0.916 2.364-2.131 2.612l0.001 1.121c0 0.294-0.238 0.533-0.533 0.533s-0.532-0.239-0.532-0.533l-0.001-1.067h-1.597c-0.294 0-0.533-0.239-0.533-0.533s0.238-0.533 0.533-0.533h2.129c0.881 0 1.598-0.718 1.598-1.599 0-0.883-0.717-1.6-1.598-1.6-1.468 0-2.662-1.197-2.662-2.667 0-1.288 0.916-2.365 2.13-2.613l0.001-1.121c0-0.294 0.238-0.533 0.532-0.533s0.533 0.239 0.533 0.533l-0.001 1.067h1.598c0.294 0 0.533 0.239 0.533 0.534 0 0.294-0.238 0.533-0.533 0.533h-2.131c-0.88 0-1.597 0.718-1.597 1.6s0.717 1.6 1.597 1.6z"></path>
</svg>
