<!-- Generated by IcoMoon.io -->
<svg version="1.1" xmlns="http://www.w3.org/2000/svg" width="32" height="32" viewBox="0 0 32 32">
<path d="M31.415 5.867c-0.294 0-0.482-0.238-0.482-0.533v-3.563l-11.922 11.94c-0.201 0.202-0.525 0.209-0.735 0.018l-5.482-4.991-9.497 9.511c1.95 2.52 4.991 4.152 8.414 4.152 4.931 0 9.187-3.346 10.349-8.138 0.070-0.286 0.357-0.462 0.644-0.392 0.285 0.069 0.461 0.358 0.391 0.644-0.481 1.981-1.442 3.737-2.743 5.158 0.039 0.022 0.080 0.042 0.114 0.075l11.324 11.342c0.208 0.209 0.208 0.546 0 0.754-0.104 0.105-0.24 0.156-0.377 0.156s-0.273-0.052-0.377-0.156l-11.324-11.342c-0.034-0.034-0.053-0.075-0.076-0.115-2.102 1.931-4.897 3.080-7.925 3.080-6.459 0-11.715-5.263-11.715-11.733s5.255-11.734 11.715-11.734c5.185 0 9.699 3.386 11.195 8.3l7.222-7.234h-3.547c-0.294 0-0.532-0.239-0.532-0.533s0.238-0.533 0.532-0.533h4.832c0.294 0 0.585 0.239 0.585 0.533v4.8c0 0.295-0.291 0.533-0.585 0.533zM22.046 9.139c-1.186-4.753-5.435-8.073-10.333-8.073-5.873 0-10.65 4.786-10.65 10.667 0 2.066 0.599 3.989 1.618 5.625l9.72-9.735c0.201-0.201 0.524-0.209 0.735-0.017l5.482 4.991 3.436-3.442c-0.002-0.006-0.006-0.010-0.007-0.016z"></path>
</svg>
