<!-- Generated by IcoMoon.io -->
<svg version="1.1" xmlns="http://www.w3.org/2000/svg" width="32" height="32" viewBox="0 0 32 32">
<path d="M31.665 27.837l-10.31 4.125c-0.063 0.025-0.13 0.038-0.198 0.038h-6.756c-0.295 0-0.533-0.239-0.533-0.533v-1.067c0-0.294 0.238-0.533 0.533-0.533h3.2c0.295 0 0.533 0.239 0.533 0.533v0.533h2.921l7.998-3.2h-1.852c-1.47 0-2.667-1.196-2.667-2.667v-6.399c0-1.47 1.196-2.667 2.667-2.667h2.134c0.602 0 1.152 0.209 1.599 0.547v-0.547c0-8.234-6.699-14.933-14.933-14.933s-14.933 6.699-14.933 14.933v0.547c0.447-0.339 0.997-0.547 1.6-0.547h2.134c1.47 0 2.666 1.197 2.666 2.667v6.399c0 1.471-1.196 2.667-2.666 2.667h-2.134c-1.47 0-2.667-1.196-2.667-2.667v-9.066c0-8.822 7.178-16 16-16s16 7.178 16 16v11.342c0 0.218-0.133 0.414-0.335 0.495zM1.067 19.094v5.972c0 0.883 0.718 1.601 1.6 1.601h2.134c0.882 0 1.599-0.718 1.599-1.601v-6.399c0-0.882-0.717-1.599-1.599-1.599h-2.134c-0.882 0-1.6 0.717-1.6 1.599v0.427zM29.334 17.067h-2.134c-0.882 0-1.6 0.717-1.6 1.599v6.399c0 0.883 0.718 1.601 1.6 1.601h2.134c0.882 0 1.599-0.718 1.599-1.601v-6.399c0-0.882-0.717-1.599-1.599-1.599z"></path>
</svg>
