<!-- Generated by IcoMoon.io -->
<svg version="1.1" xmlns="http://www.w3.org/2000/svg" width="32" height="32" viewBox="0 0 32 32">
<path d="M31.988 31.354c0.007 0.037 0.012 0.075 0.012 0.113 0 0.295-0.238 0.533-0.533 0.533-0.004 0-0.007 0-0.011 0h-8.53c-0.294 0-0.533-0.238-0.533-0.533 0-2.135 1.402-3.947 3.332-4.569-1.33-0.571-2.266-1.893-2.266-3.431 0-2.058 1.675-3.733 3.732-3.733s3.732 1.675 3.732 3.733c0 1.538-0.935 2.861-2.267 3.432 1.897 0.61 3.283 2.369 3.332 4.455zM29.857 23.467c0-1.47-1.196-2.667-2.666-2.667s-2.666 1.197-2.666 2.667c0 1.47 1.196 2.667 2.666 2.667s2.666-1.197 2.666-2.667zM27.191 27.733c-1.877 0-3.435 1.394-3.694 3.201h7.388c-0.26-1.807-1.818-3.201-3.694-3.201zM27.191 18.134c-0.294 0-0.533-0.239-0.533-0.534v-1.066h-10.13v1.066c0 0.295-0.238 0.534-0.533 0.534s-0.533-0.239-0.533-0.534v-1.066h-10.13v1.066c0 0.295-0.238 0.534-0.533 0.534s-0.533-0.239-0.533-0.534v-1.6c0-0.295 0.239-0.533 0.533-0.533h10.663v-1.067c0-0.295 0.239-0.534 0.533-0.534s0.533 0.239 0.533 0.534v1.067h10.663c0.294 0 0.533 0.238 0.533 0.533v1.6c0 0.295-0.239 0.534-0.533 0.534zM20.27 12.267c-0.004-0.001-0.007-0.001-0.011 0h-8.531c-0.294 0-0.533-0.238-0.533-0.533 0-2.135 1.402-3.948 3.332-4.569-1.331-0.571-2.266-1.893-2.266-3.431 0-2.059 1.674-3.733 3.732-3.733s3.732 1.675 3.732 3.733c0 1.538-0.936 2.86-2.267 3.431 1.897 0.61 3.283 2.369 3.332 4.455 0.008 0.037 0.012 0.075 0.012 0.114 0 0.295-0.239 0.533-0.533 0.533zM18.66 3.734c0-1.47-1.196-2.667-2.666-2.667s-2.666 1.196-2.666 2.667c0 1.47 1.196 2.666 2.666 2.666s2.666-1.196 2.666-2.666zM15.995 8c-1.877 0-3.435 1.394-3.694 3.2h7.388c-0.259-1.806-1.817-3.2-3.694-3.2zM8.53 23.467c0 1.538-0.935 2.861-2.266 3.432 1.897 0.61 3.283 2.369 3.331 4.455 0.008 0.037 0.012 0.075 0.012 0.113 0 0.295-0.239 0.533-0.533 0.533-0.004 0-0.007 0-0.011 0h-8.531c-0.294 0-0.533-0.238-0.533-0.533 0-2.135 1.402-3.947 3.332-4.569-1.331-0.571-2.266-1.893-2.266-3.431 0-2.058 1.674-3.733 3.732-3.733s3.732 1.675 3.732 3.733zM1.104 30.934h7.388c-0.26-1.807-1.817-3.201-3.694-3.201s-3.435 1.394-3.694 3.201zM2.132 23.467c0 1.47 1.196 2.667 2.666 2.667s2.666-1.197 2.666-2.667c0-1.47-1.196-2.667-2.666-2.667s-2.666 1.197-2.666 2.667zM14.528 26.898c-1.331-0.571-2.266-1.893-2.266-3.431 0-2.058 1.674-3.733 3.732-3.733s3.732 1.675 3.732 3.733c0 1.538-0.935 2.861-2.267 3.432 1.897 0.61 3.283 2.369 3.331 4.455 0.008 0.037 0.012 0.075 0.012 0.113 0 0.295-0.239 0.533-0.533 0.533-0.004 0-0.007 0-0.011 0h-8.531c-0.294 0-0.533-0.238-0.533-0.533 0-2.135 1.402-3.947 3.332-4.569zM18.66 23.467c0-1.47-1.196-2.667-2.666-2.667s-2.666 1.197-2.666 2.667c0 1.47 1.196 2.667 2.666 2.667s2.666-1.197 2.666-2.667zM19.689 30.934c-0.259-1.807-1.817-3.201-3.694-3.201s-3.435 1.394-3.694 3.201h7.388z"></path>
</svg>
