<!-- Generated by IcoMoon.io -->
<svg version="1.1" xmlns="http://www.w3.org/2000/svg" width="32" height="32" viewBox="0 0 32 32">
<path d="M26.51 8.91c-0.036 0.036-0.079 0.057-0.121 0.081 2.156 2.441 3.477 5.634 3.477 9.142 0 7.646-6.22 13.867-13.867 13.867s-13.867-6.221-13.867-13.867c0-7.466 5.935-13.556 13.333-13.839v-3.227h-2.667c-0.295 0-0.533-0.239-0.533-0.534s0.238-0.533 0.533-0.533h6.4c0.295 0 0.533 0.239 0.533 0.533s-0.238 0.534-0.533 0.534h-2.667v3.227c3.294 0.126 6.293 1.408 8.612 3.445 0.023-0.040 0.043-0.082 0.077-0.116l1.6-1.599c0.209-0.209 0.546-0.209 0.754 0l0.533 0.533c0.209 0.209 0.209 0.546 0 0.754l-1.6 1.6zM16 5.333c-7.058 0-12.8 5.742-12.8 12.8s5.742 12.8 12.8 12.8 12.8-5.742 12.8-12.8c0-7.058-5.742-12.8-12.8-12.8zM16 20.267c-1.177 0-2.133-0.957-2.133-2.133 0-0.394 0.115-0.759 0.302-1.077l-4.946-4.946c-0.209-0.209-0.209-0.546 0-0.754s0.546-0.209 0.754 0l4.946 4.946c0.317-0.187 0.682-0.302 1.077-0.302 1.177 0 2.133 0.957 2.133 2.133s-0.957 2.133-2.133 2.133zM16 17.067c-0.208 0-0.401 0.062-0.566 0.166-0.025 0.077-0.062 0.15-0.124 0.211s-0.134 0.099-0.211 0.124c-0.103 0.164-0.166 0.357-0.166 0.565 0 0.588 0.478 1.067 1.067 1.067s1.067-0.479 1.067-1.067c0-0.588-0.478-1.067-1.067-1.067z"></path>
</svg>
