<!-- Generated by IcoMoon.io -->
<svg version="1.1" xmlns="http://www.w3.org/2000/svg" width="32" height="32" viewBox="0 0 32 32">
<path d="M31.42 13.851c-0.002 0-0.006 0-0.010 0h-4.26v11.721h2.201c0.294 0 0.532 0.238 0.532 0.533s-0.238 0.533-0.532 0.533h-26.764c-0.294 0-0.532-0.238-0.532-0.533s0.238-0.533 0.532-0.533h2.201v-11.721h-4.259c-0.233 0-0.439-0.152-0.509-0.374s0.014-0.465 0.206-0.597l15.441-10.655c0.182-0.126 0.422-0.126 0.604 0l15.381 10.614c0.178 0.087 0.3 0.269 0.3 0.479 0 0.294-0.238 0.533-0.533 0.533zM21.826 25.571h4.26v-11.721h-4.26v11.721zM20.761 25.571v-11.721h-4.276v11.717c0 0.001 0 0.002 0 0.003h4.276zM15.436 25.571v-11.721h-4.284v11.717c0 0.001 0 0.002 0 0.003h4.284zM10.112 25.571v-11.721h-4.293v11.717c0 0.001 0 0.002 0 0.003h4.293zM15.969 3.31l-13.731 9.475h27.462l-13.731-9.475zM0.529 28.768h30.881c0.294 0 0.532 0.238 0.532 0.533s-0.238 0.533-0.532 0.533h-30.881c-0.294 0-0.533-0.239-0.533-0.533s0.238-0.533 0.533-0.533z"></path>
</svg>
