<!-- Generated by IcoMoon.io -->
<svg version="1.1" xmlns="http://www.w3.org/2000/svg" width="32" height="32" viewBox="0 0 32 32">
<path d="M28.031 12.295c-0.014 0.014-0.033 0.019-0.049 0.031-0.012 0.015-0.017 0.033-0.031 0.047l-10.836 10.842c-0.003 0.002-0.006 0.003-0.009 0.005-0.009 0.008-0.021 0.012-0.029 0.020-0.047 0.039-0.095 0.073-0.15 0.094-0.001 0-0.001 0.001-0.002 0.001l-4.479 1.684c-0.061 0.022-0.124 0.034-0.187 0.034h-5.325c-0.294 0-0.532-0.238-0.532-0.533s0.238-0.533 0.532-0.533h4.956l1.553-4.135c0.001-0.002 0.003-0.004 0.004-0.006 0.009-0.021 0.025-0.037 0.036-0.058 0.024-0.044 0.047-0.087 0.081-0.122 0.001-0.001 0.001-0.001 0.002-0.002l10.836-10.842c0.015-0.015 0.035-0.021 0.051-0.034 0.011-0.014 0.016-0.031 0.029-0.044 0.474-0.475 1.104-0.737 1.774-0.737s1.301 0.262 1.775 0.737c0.474 0.474 0.735 1.105 0.735 1.777-0.001 0.67-0.262 1.3-0.736 1.774zM13.171 23.608l3.277-1.231 8.971-8.975-2.044-2.044-8.975 8.98-1.228 3.271zM27.279 9.498c-0.547-0.549-1.497-0.548-2.043-0.001-0.015 0.015-0.035 0.021-0.051 0.034-0.012 0.014-0.017 0.031-0.030 0.044l-1.028 1.029 2.044 2.044 1.027-1.027c0.014-0.014 0.033-0.020 0.047-0.032 0.013-0.016 0.019-0.035 0.034-0.050 0.272-0.271 0.422-0.633 0.422-1.019 0.001-0.387-0.15-0.75-0.423-1.023zM26.105 5.345c-0.294 0-0.533-0.238-0.533-0.532v-3.233c0-0.274-0.271-0.529-0.538-0.529h-13.333v6.933c0 0.294-0.239 0.533-0.533 0.533h-6.933v21.867c0 0.269 0.261 0.527 0.523 0.527h20.332c0.262 0 0.483-0.228 0.483-0.498v-11.22c0-0.295 0.238-0.533 0.533-0.533s0.532 0.238 0.532 0.533v11.22c0 0.861-0.694 1.563-1.548 1.563h-20.332c-0.854 0-1.548-0.701-1.548-1.563v-22.406c0-0.012 0.006-0.021 0.006-0.033 0.003-0.049 0.012-0.095 0.028-0.142 0.006-0.017 0.010-0.033 0.018-0.049 0.026-0.055 0.059-0.108 0.103-0.154l7.454-7.457c0.001 0 0.001-0.001 0.001-0.001 0.045-0.045 0.098-0.077 0.153-0.103 0.015-0.007 0.031-0.011 0.047-0.017 0.047-0.017 0.096-0.027 0.146-0.030 0.010-0.001 0.019-0.006 0.029-0.006h13.894c0.854 0 1.548 0.701 1.548 1.562v3.233c0 0.294-0.238 0.532-0.532 0.532zM10.662 1.837l-5.637 5.638h5.637v-5.638z"></path>
</svg>
